<?xml version="1.0" encoding="utf-8"?>
<!-- Generator: Adobe Illustrator 26.4.1, SVG Export Plug-In . SVG Version: 6.00 Build 0)  -->
<svg version="1.1" id="圖層_1" xmlns="http://www.w3.org/2000/svg" xmlns:xlink="http://www.w3.org/1999/xlink" x="0px" y="0px"
	 viewBox="0 0 373.39 189.18" style="enable-background:new 0 0 373.39 189.18;" xml:space="preserve">
<style type="text/css">
	.st0{fill:none;}
	.st1{fill:#F9F9F9;}
	.st2{fill:#CF2352;}
	.st3{clip-path:url(#SVGID_00000065787079955669880200000015324419433789268099_);}
	.st4{clip-path:url(#SVGID_00000094610784768248137640000006275771709735251362_);}
	.st5{clip-path:url(#SVGID_00000093866352726971566660000009260000204130073747_);}
	.st6{clip-path:url(#SVGID_00000092413895881660215210000013021158262838603688_);}
	.st7{clip-path:url(#SVGID_00000007419440287198914410000009765358031371764920_);}
	.st8{clip-path:url(#SVGID_00000007418196636087465120000016499467144687162012_);}
	.st9{clip-path:url(#SVGID_00000051345235525534778110000003073519359411740577_);}
	.st10{clip-path:url(#SVGID_00000169523374305422630360000010859451105572049308_);}
	.st11{clip-path:url(#SVGID_00000104671409096690292550000008871875677689434813_);}
	.st12{clip-path:url(#SVGID_00000064317101412290277990000002905784402062061481_);}
	.st13{clip-path:url(#SVGID_00000032632781406946804870000017283101305037581224_);}
	.st14{clip-path:url(#SVGID_00000072992567623308990530000007575338615501970072_);}
	.st15{clip-path:url(#SVGID_00000062151215976466807130000011493784006245169069_);}
	.st16{clip-path:url(#SVGID_00000011740533253239798740000008911613971079255696_);}
	.st17{clip-path:url(#SVGID_00000176028894683170506080000012384952437150568855_);}
	.st18{clip-path:url(#SVGID_00000175308765770708797710000013545900185958215579_);}
	.st19{clip-path:url(#SVGID_00000172435711685229386610000008214438226318996882_);}
	.st20{clip-path:url(#SVGID_00000049220035452523234910000003305588671995169961_);}
	.st21{clip-path:url(#SVGID_00000006674708233202919560000001170108039178909098_);}
	.st22{clip-path:url(#SVGID_00000164479582896151616270000009735780824795187872_);}
	.st23{clip-path:url(#SVGID_00000124140342956193289330000018301850832658678949_);}
	.st24{clip-path:url(#SVGID_00000049943889303094181480000014736813625068970660_);}
	.st25{clip-path:url(#SVGID_00000157291631069729733790000004309582274441524617_);}
	.st26{clip-path:url(#SVGID_00000070839088161564598580000007778997969472628377_);}
	.st27{clip-path:url(#SVGID_00000020363848413665308160000002847490910438378374_);}
	.st28{clip-path:url(#SVGID_00000006703686600032687770000015748634083609713293_);}
	.st29{clip-path:url(#SVGID_00000102537960430970769560000002363182445692544403_);}
	.st30{clip-path:url(#SVGID_00000031172714188659532390000004272188103484535452_);}
	.st31{clip-path:url(#SVGID_00000016037775086760296690000000651827712053520028_);}
	.st32{clip-path:url(#SVGID_00000003062820702900693180000002546929793024328073_);}
	.st33{clip-path:url(#SVGID_00000141431610027042485010000016221926064325074357_);}
	.st34{clip-path:url(#SVGID_00000050639524129058324610000018117447425306902177_);}
	.st35{clip-path:url(#SVGID_00000101794796373171166480000002144795377375028398_);}
	.st36{clip-path:url(#SVGID_00000071532208520743760260000007087922324244182684_);}
	.st37{clip-path:url(#SVGID_00000095300027609531891510000003571663401661640580_);}
	.st38{clip-path:url(#SVGID_00000078763683081661808430000012690493494589197964_);}
	.st39{clip-path:url(#SVGID_00000177446378342124366630000006628976219990380715_);}
	.st40{clip-path:url(#SVGID_00000031173333152066501050000018262842511012224169_);}
</style>
<rect x="-632.06" class="st0" width="373.39" height="189.18"/>
<rect x="-632.06" class="st1" width="373.39" height="189.18"/>
<g>
	<path class="st2" d="M-577.73,65.09c-8.56,0-16.56,0.22-24.54-0.15c-2.09-0.1-4.1-2.02-6.15-3.1c2.13-1.26,4.2-3.43,6.41-3.59
		c6.47-0.49,13.05-0.61,19.51-0.05c6.04,0.52,8.95-1.36,10.25-7.43c1.67-7.81,4.43-9.38,11.83-8.61c7.82,0.82,10.37,4.46,8.6,12.19
		c-0.23,0.99-0.18,2.04-0.3,3.71c12.24,0,24.14,0,36.03,0c2.39,0,4.89-0.44,7.13,0.14c1.9,0.49,3.48,2.17,5.2,3.33
		c-1.65,1.18-3.24,3.24-4.98,3.38c-5.39,0.45-10.84,0.17-16.27,0.17c-7.16,0-14.33,0-21.49,0c-10.97,0-11.53,0.44-14.91,12.38
		c11.19,0,22.19-0.01,33.19,0c13.21,0.02,14.96,1.75,14.96,14.94c0,13.57,0.17,27.14-0.18,40.7c-0.29,11.55-2.49,13.37-14.01,13.41
		c-6.29,0.02-12.61,0.25-18.87-0.16c-1.81-0.12-3.49-2.12-5.23-3.26c1.68-1.19,3.29-3.27,5.07-3.42
		c13.87-1.18,13.88-1.06,13.37-14.88c-0.04-1.05-0.22-2.09-0.44-4.02c-10.01,0-19.9-0.12-29.79,0.19c-0.99,0.03-2.56,2.58-2.71,4.07
		c-0.4,3.84-0.14,7.74-0.16,11.62c-0.05,8.38-1.99,10.57-9.31,10.54c-7.42-0.03-9.67-2.4-9.69-10.37
		c-0.03-9.91,0.01-19.81-0.02-29.72c-0.01-1.85-0.22-3.69-0.41-6.51c-5.67,3.45-10.43,6.74-15.57,9.29
		c-2.13,1.06-5.06,0.54-7.63,0.73c1.07-2.28,1.56-5.19,3.29-6.74C-590.97,90.82-581.59,78.22-577.73,65.09z M-533.45,102.52
		c-10.23,0-19.74-0.2-29.23,0.24c-1.26,0.06-3.27,3.42-3.28,5.27c-0.02,1.86,1.94,5.3,3.16,5.35c9.66,0.45,19.35,0.25,29.35,0.25
		C-533.45,109.7-533.45,106.57-533.45,102.52z M-533.71,95.55c1.09-9.33,0.8-10.81-2.96-10.94c-8.64-0.3-17.31-0.36-25.93,0.2
		c-1.33,0.09-3.12,3.91-3.36,6.14c-0.15,1.4,2.17,4.34,3.47,4.39C-553.02,95.73-543.54,95.55-533.71,95.55z"/>
	<path class="st2" d="M-302.57,127.94c-2.91-6.62,0.11-16.02-8.51-19.08c-6.42,2.47-12.26,4.72-18.1,6.97l0.18,0.16
		c1.16-2.93,1.48-6.92,3.64-8.59c6.39-4.96,7.83-9.82,4.58-17.59c-2.93-7.01-3.78-14.93-5.04-22.54c-0.56-3.4-1.58-4.92-5.23-4.85
		c-9.33,0.17-18.67,0.18-28.01,0c-3.97-0.07-5.28,1.49-5.36,5.33c-0.16,7.72-0.27,15.51-1.31,23.14
		c-1.41,10.39-6.84,18.98-14.56,25.99c-1.49,1.35-4.14,1.46-6.25,2.14c-0.08-1.97-0.78-4.17-0.13-5.87
		c4.84-12.7,3.43-25.92,3.59-38.99c0.2-17.48,1.27-18.66,18.81-18.69c11.72-0.02,23.44-0.11,35.16-0.2c0.39,0,0.77-0.33,1.52-0.68
		c0.12-1.04,0.42-2.27,0.37-3.5c-0.24-6.06,2.9-8.5,8.73-8.63c5.77-0.13,9.97,1.45,10.1,8.01c0.07,3.56,0.57,6.19,5.45,4.3
		c-0.25-0.98-0.54-1.95-0.75-2.94c-0.5-2.4-0.96-4.8-1.43-7.21c2.66-0.08,5.75-1.04,7.91-0.04c4.32,2.01,12.42,1.07,9.85,10
		c-0.05,0.17,1.65,0.58,2.03,1.19c0.83,1.31,2.15,3.11,1.76,4.16c-0.43,1.16-2.52,2.35-3.93,2.41c-6.47,0.25-12.96,0.11-20.65,0.11
		c0.52,4.89,0.97,9.11,1.64,15.3c1.58-2.99,2.31-4.19,2.86-5.46c2.79-6.41,6.77-7.98,12.86-5.03c5.21,2.52,6.33,6.32,2.84,12.38
		c-2.57,4.46-5.63,8.71-8.97,12.64c-3.3,3.88-1.64,5.89,2.56,8.59c0.98-2.61,1.34-5.01,2.65-6.68c1.25-1.6,3.66-3.56,5.24-3.31
		c1.66,0.25,3.9,2.77,4.23,4.59c1.73,9.56-3.02,16.62-14.41,22.23c3.7,3.94,7.91,7.5,10.82,11.9c1.57,2.38,2.32,7.21,0.92,9.11
		c-1.77,2.41-6.16,4.1-9.31,3.93c-1.96-0.1-4.05-4.01-5.46-6.56c-1.42-2.56-2.06-5.54-3.04-8.34L-302.57,127.94z"/>
	<path class="st2" d="M-434.42,128.71c-7.39,0-14.04,0-20.47,0c0.49,3.09,2.36,7.12,1.09,8.74c-1.98,2.55-5.93,4.24-9.32,4.93
		c-8.88,1.8-17.89,3.05-26.9,4.07c-1.92,0.22-4.06-1.48-6.1-2.3c1.68-1.6,3.1-3.74,5.09-4.7c6.53-3.13,13.27-5.82,20.07-8.74
		c-0.82-1.34-0.98-1.9-1.21-1.93c-13.67-1.85-13.96-2.17-13.96-16.22c0-6.24-0.18-12.5,0.1-18.73c0.32-7.17,2.89-9.77,10.1-9.83
		c20.18-0.16,40.36-0.2,60.54-0.01c8.45,0.08,10.63,2.62,10.67,11.03c0.03,7.32,0.04,14.64-0.01,21.96
		c-0.05,9.01-1.9,10.92-10.9,11.45c-1.06,0.06-2.11,0.15-3.84,1.77c5.18,2.52,10.34,5.06,15.54,7.54c1.36,0.65,3.05,0.79,4.2,1.66
		c1.85,1.39,3.39,3.2,5.06,4.83c-2.05,0.8-4.21,2.49-6.12,2.24c-9.82-1.3-19.71-2.59-29.32-4.88
		C-438.17,139.65-438.86,136.9-434.42,128.71z M-445.37,96.81c6.08,0,12.16,0.14,18.22-0.13c1.17-0.05,2.26-1.73,3.39-2.66
		c-1.12-1.01-2.21-2.89-3.35-2.91c-11.93-0.22-23.87-0.25-35.8,0c-1.3,0.03-2.55,2.12-3.82,3.26c1.26,0.82,2.49,2.29,3.78,2.34
		C-457.09,96.97-451.23,96.82-445.37,96.81z M-423.06,117.71c-0.53-0.44-1.06-0.88-1.6-1.32c-14.02,0-28.04,0-42.06,0
		c-0.22,0.72-0.44,1.44-0.67,2.16c1.71,0.95,3.41,2.68,5.14,2.71c11.5,0.24,23.01,0.26,34.51-0.04
		C-426.15,121.18-424.62,118.93-423.06,117.71z M-444.81,108.49c5.83,0,11.66,0.14,17.47-0.12c1.21-0.05,2.35-1.58,3.52-2.43
		c-1.12-0.69-2.23-1.96-3.36-1.97c-11.86-0.15-23.73-0.17-35.6,0c-1.32,0.02-2.63,1.39-3.94,2.14c1.26,0.8,2.49,2.23,3.78,2.28
		C-456.89,108.63-450.85,108.49-444.81,108.49z"/>
	<path class="st2" d="M-473.25,58.07c6.45,0,12.91-0.28,19.33,0.14c2.58,0.17,5.05,1.86,7.58,2.86c-1.85,1.86-3.7,3.73-5.54,5.59
		c-0.42-0.23-0.84-0.46-1.25-0.69c0,2.12,0.04,4.24-0.01,6.35c-0.16,7.43-2.29,9.7-8.99,9.64c-6.75-0.06-8.41-1.98-8.5-9.84
		c-0.01-0.86,0.19-1.78-0.06-2.57c-0.47-1.47-1.21-2.85-1.83-4.27c-1.09,1.09-2.7,1.99-3.19,3.31c-2.95,7.83-8.37,13.51-15.41,17.71
		c-1.62,0.97-3.9,0.87-5.87,1.26c-0.02-2.16-0.4-4.38-0.01-6.47c1.54-8.36,3.97-16.62,4.77-25.04c0.63-6.57,3.62-8.92,9.64-9.59
		c9.63-1.07,19.21-2.6,28.83-3.74c1.83-0.22,4.08-0.11,5.55,0.8c1.38,0.85,2.6,2.92,2.68,4.51c0.05,0.89-2.28,2.58-3.68,2.75
		c-6.22,0.74-12.53,0.81-18.73,1.66c-2.19,0.3-4.17,2.1-6.25,3.22C-473.9,56.46-473.58,57.27-473.25,58.07z"/>
	<path class="st2" d="M-423.59,58.07c7.34,0,14.69-0.29,22,0.15c2.8,0.17,7.79,1.89,7.84,3.06c0.2,4.71-4.2,3.52-7.25,3.84
		c-0.63,0.07-1.24,0.27-2.06,0.45c-2.41,5.78,3.08,15.96-9.22,16.42c-13.23,0.5-8.29-10.28-10.93-17.99
		c-2.08,2.22-3.37,3.86-4.92,5.19c-4.85,4.17-9.69,8.36-14.8,12.19c-1,0.75-3.76,0.54-4.68-0.32c-0.85-0.79-0.67-3.13-0.31-4.64
		c1.73-7.21,4.27-14.27,5.35-21.56c0.79-5.32,3.22-7.55,8.14-8.19c10.27-1.33,20.5-3.08,30.81-3.89c2.46-0.19,5.17,2.64,7.76,4.08
		c-2.03,1.41-3.92,3.7-6.13,4.07c-5.53,0.91-11.24,0.71-16.81,1.46c-2.1,0.28-4.02,1.95-6.02,2.98
		C-424.4,56.29-423.99,57.18-423.59,58.07z"/>
	<path class="st2" d="M-302.7,127.75c-1.36,14.48-4.63,17.5-19.02,17.51c-9.75,0.01-19.5,0.03-29.25-0.01
		c-10.62-0.04-12.64-2.01-12.66-12.28c-0.01-4.73-0.11-9.46,0.04-14.19c0.2-6.25,4.43-7.83,9.76-7.68c5.02,0.13,9.03,1.66,9.02,7.71
		c-0.01,4.94-0.37,9.94,0.25,14.8c0.22,1.7,2.7,4.05,4.49,4.41c3.54,0.7,7.33,0.14,11.01,0.22c4.68,0.1,7.06-2.46,8.32-6.62
		c3.36-11.1,9.36-12.3,18.17-3.7C-302.57,127.94-302.7,127.75-302.7,127.75z"/>
	<path class="st2" d="M-345.05,106.66c-1.52,0-3.03,0-4.55,0c-12.42-0.03-12.79-0.39-12.73-12.68c0.05-9.66,1.66-11.3,11.21-11.33
		c5.2-0.01,10.4-0.07,15.59,0.05c5.92,0.13,8.98,2.72,9.01,9.14C-326.45,106.65-326.27,106.66-345.05,106.66z M-340.37,94.74
		c-1.62-1.98-2.78-3.42-3.95-4.85c-0.98,1.81-2.67,3.59-2.73,5.43c-0.05,1.5,1.85,3.06,2.88,4.59
		C-343.06,98.39-341.94,96.88-340.37,94.74z"/>
	<path class="st2" d="M-366.19,124.1c-1.02,4.78-1.46,9.79-3.28,14.25c-1,2.44-4.2,5.34-6.61,5.53c-2.88,0.22-7.05-1.5-8.61-3.76
		c-1.17-1.7,0.33-5.89,1.66-8.44c2.36-4.54,5.31-8.82,8.4-12.92c1.49-1.98,3.89-3.28,5.88-4.9c0.69,2.3,1.47,4.58,2.03,6.92
		c0.24,1.01,0.04,2.13,0.04,3.2C-366.51,124.02-366.35,124.06-366.19,124.1z"/>
	<path class="st2" d="M-329.18,115.83c1.44,1.3,3.41,2.34,4.19,3.95c1.1,2.27,2.6,5.74,1.63,7.3c-1.49,2.39-4.77,4.51-7.58,4.95
		c-1.85,0.29-4.93-2.12-6.16-4.12c-2.22-3.61-3.58-7.77-5.05-11.8c-0.46-1.27-0.68-3.62-0.01-4.09c1.18-0.84,3.39-1.24,4.7-0.71
		c2.97,1.2,5.66,3.08,8.46,4.68C-328.99,115.99-329.18,115.83-329.18,115.83z"/>
	<path class="st2" d="M-344.88,76.67c-4.33-0.01-8.7,0.26-12.99-0.15c-1.53-0.15-2.89-1.96-4.33-3.02c1.46-1.25,2.88-3.53,4.38-3.59
		c8.65-0.35,17.33-0.32,25.99-0.03c1.42,0.05,2.77,1.97,4.16,3.03c-1.4,1.26-2.7,3.42-4.23,3.6
		C-336.17,77-340.55,76.68-344.88,76.67z"/>
</g>
<rect class="st1" width="373.39" height="189.18"/>
<g>
	<g>
		<g>
			<g>
				<defs>
					<rect id="SVGID_1_" x="101.66" y="9.55" width="170.08" height="170.08"/>
				</defs>
				<clipPath id="SVGID_00000043442546557833851300000016230499832847274423_">
					<use xlink:href="#SVGID_1_"  style="overflow:visible;"/>
				</clipPath>
				<g style="clip-path:url(#SVGID_00000043442546557833851300000016230499832847274423_);">
					<g>
						<g>
							<defs>
								
									<rect id="SVGID_00000105404690103015567250000017071581231310493115_" x="101.66" y="9.55" width="170.08" height="170.08"/>
							</defs>
							<clipPath id="SVGID_00000038389162590210465890000000012414724702205098_">
								<use xlink:href="#SVGID_00000105404690103015567250000017071581231310493115_"  style="overflow:visible;"/>
							</clipPath>
							<path style="clip-path:url(#SVGID_00000038389162590210465890000000012414724702205098_);" d="M186.7,39.06
								c-3.44,0-6.83,0.31-10.14,0.92l10.14,13.21l10.14-13.21C193.53,39.37,190.14,39.06,186.7,39.06"/>
						</g>
					</g>
					<g>
						<g>
							<defs>
								
									<rect id="SVGID_00000001665767329855375160000010603497106146011303_" x="101.66" y="9.55" width="170.08" height="170.08"/>
							</defs>
							<clipPath id="SVGID_00000120541511038405838780000009091730732283698574_">
								<use xlink:href="#SVGID_00000001665767329855375160000010603497106146011303_"  style="overflow:visible;"/>
							</clipPath>
							<path style="clip-path:url(#SVGID_00000120541511038405838780000009091730732283698574_);" d="M186.7,37.56
								c3.43,0,6.81,0.3,10.11,0.89L186.7,25.28l-10.11,13.17C179.89,37.86,183.27,37.56,186.7,37.56"/>
						</g>
					</g>
					<g>
						<g>
							<defs>
								
									<rect id="SVGID_00000026877900373483031740000017842503799443958406_" x="101.66" y="9.55" width="170.08" height="170.08"/>
							</defs>
							<clipPath id="SVGID_00000029022200885588163600000010049232114212781988_">
								<use xlink:href="#SVGID_00000026877900373483031740000017842503799443958406_"  style="overflow:visible;"/>
							</clipPath>
							<path style="clip-path:url(#SVGID_00000029022200885588163600000010049232114212781988_);" d="M198.27,40.26l4.35,16.22
								l14.5-8.37C211.37,44.33,205,41.68,198.27,40.26"/>
						</g>
					</g>
					<g>
						<g>
							<defs>
								
									<rect id="SVGID_00000098203355965782733280000010223189973398490786_" x="101.66" y="9.55" width="170.08" height="170.08"/>
							</defs>
							<clipPath id="SVGID_00000104682498722580533060000008563040263410502789_">
								<use xlink:href="#SVGID_00000098203355965782733280000010223189973398490786_"  style="overflow:visible;"/>
							</clipPath>
							<path style="clip-path:url(#SVGID_00000104682498722580533060000008563040263410502789_);" d="M217.57,46.62L213.3,30.7
								l-14.21,8.21C205.67,40.35,211.91,42.96,217.57,46.62"/>
						</g>
					</g>
					<g>
						<g>
							<defs>
								
									<rect id="SVGID_00000055693566361152400170000001427942489908700036_" x="101.66" y="9.55" width="170.08" height="170.08"/>
							</defs>
							<clipPath id="SVGID_00000096773602478767844280000003517111844031484601_">
								<use xlink:href="#SVGID_00000055693566361152400170000001427942489908700036_"  style="overflow:visible;"/>
							</clipPath>
							<path style="clip-path:url(#SVGID_00000096773602478767844280000003517111844031484601_);" d="M232.76,63.54
								c-1.98-2.92-4.24-5.67-6.79-8.22c-2.34-2.35-4.86-4.45-7.53-6.32l-2.2,16.71L232.76,63.54z"/>
						</g>
					</g>
					<g>
						<g>
							<defs>
								
									<rect id="SVGID_00000126289823368019017090000008656306715416602248_" x="101.66" y="9.55" width="170.08" height="170.08"/>
							</defs>
							<clipPath id="SVGID_00000114762437972209907970000009427765860135134851_">
								<use xlink:href="#SVGID_00000126289823368019017090000008656306715416602248_"  style="overflow:visible;"/>
							</clipPath>
							<path style="clip-path:url(#SVGID_00000114762437972209907970000009427765860135134851_);" d="M227.02,54.26
								c2.54,2.54,4.8,5.27,6.79,8.17l2.16-16.45l-16.21,2.13C222.33,49.94,224.76,51.99,227.02,54.26"/>
						</g>
					</g>
					<g>
						<g>
							<defs>
								
									<rect id="SVGID_00000049924744210507953760000016606998015881440906_" x="101.66" y="9.55" width="170.08" height="170.08"/>
							</defs>
							<clipPath id="SVGID_00000090283363063736664270000007098627599694252962_">
								<use xlink:href="#SVGID_00000049924744210507953760000016606998015881440906_"  style="overflow:visible;"/>
							</clipPath>
							<path style="clip-path:url(#SVGID_00000090283363063736664270000007098627599694252962_);" d="M241.1,83.38
								c-1.37-6.72-3.97-13.09-7.69-18.85l-8.39,14.54L241.1,83.38z"/>
						</g>
					</g>
					<g>
						<g>
							<defs>
								
									<rect id="SVGID_00000047021613261783917130000018278200909099235989_" x="101.66" y="9.55" width="170.08" height="170.08"/>
							</defs>
							<clipPath id="SVGID_00000131335995467760995050000007822283907506576059_">
								<use xlink:href="#SVGID_00000047021613261783917130000018278200909099235989_"  style="overflow:visible;"/>
							</clipPath>
							<path style="clip-path:url(#SVGID_00000131335995467760995050000007822283907506576059_);" d="M234.94,64.14
								c3.62,5.71,6.17,12.01,7.56,18.63l8.3-14.38L234.94,64.14z"/>
						</g>
					</g>
					<g>
						<g>
							<defs>
								
									<rect id="SVGID_00000060001464485616927130000008321933882876118656_" x="101.66" y="9.55" width="170.08" height="170.08"/>
							</defs>
							<clipPath id="SVGID_00000181809258055789580660000017816397760993467028_">
								<use xlink:href="#SVGID_00000060001464485616927130000008321933882876118656_"  style="overflow:visible;"/>
							</clipPath>
							<path style="clip-path:url(#SVGID_00000181809258055789580660000017816397760993467028_);" d="M241.3,84.42l-13.24,10.16
								l13.24,10.16c0.61-3.32,0.93-6.72,0.93-10.16S241.91,87.74,241.3,84.42"/>
						</g>
					</g>
					<g>
						<g>
							<defs>
								
									<rect id="SVGID_00000078005641999754512500000007677561509581185689_" x="101.66" y="9.55" width="170.08" height="170.08"/>
							</defs>
							<clipPath id="SVGID_00000146498497756775802580000011857561637135127977_">
								<use xlink:href="#SVGID_00000078005641999754512500000007677561509581185689_"  style="overflow:visible;"/>
							</clipPath>
							<path style="clip-path:url(#SVGID_00000146498497756775802580000011857561637135127977_);" d="M255.97,94.59l-13.13-10.07
								c0.58,3.29,0.88,6.66,0.88,10.07c0,3.41-0.3,6.78-0.88,10.08L255.97,94.59z"/>
						</g>
					</g>
					<g>
						<g>
							<defs>
								
									<rect id="SVGID_00000011016355268658433810000010452009726724990907_" x="101.66" y="9.55" width="170.08" height="170.08"/>
							</defs>
							<clipPath id="SVGID_00000098940889118657419150000015098676914439173511_">
								<use xlink:href="#SVGID_00000011016355268658433810000010452009726724990907_"  style="overflow:visible;"/>
							</clipPath>
							<path style="clip-path:url(#SVGID_00000098940889118657419150000015098676914439173511_);" d="M224.82,110.22l8.45,14.64
								c3.78-5.79,6.43-12.22,7.82-19L224.82,110.22z"/>
						</g>
					</g>
					<g>
						<g>
							<defs>
								
									<rect id="SVGID_00000130606106607643881930000006139473455668996231_" x="101.66" y="9.55" width="170.08" height="170.08"/>
							</defs>
							<clipPath id="SVGID_00000054267080503568624360000005330577466066326405_">
								<use xlink:href="#SVGID_00000130606106607643881930000006139473455668996231_"  style="overflow:visible;"/>
							</clipPath>
							<path style="clip-path:url(#SVGID_00000054267080503568624360000005330577466066326405_);" d="M242.43,106.75
								c-1.41,6.53-3.96,12.73-7.54,18.37l15.71-4.21L242.43,106.75z"/>
						</g>
					</g>
					<g>
						<g>
							<defs>
								
									<rect id="SVGID_00000062152274375333136620000005078640841863221682_" x="101.66" y="9.55" width="170.08" height="170.08"/>
							</defs>
							<clipPath id="SVGID_00000108998330336496712090000010208969308947141041_">
								<use xlink:href="#SVGID_00000062152274375333136620000005078640841863221682_"  style="overflow:visible;"/>
							</clipPath>
							<path style="clip-path:url(#SVGID_00000108998330336496712090000010208969308947141041_);" d="M232.53,125.97l-16.51-2.17
								l2.18,16.54c2.75-1.9,5.35-4.07,7.77-6.48C228.42,131.4,230.6,128.76,232.53,125.97"/>
						</g>
					</g>
					<g>
						<g>
							<defs>
								
									<rect id="SVGID_00000096024273935667559760000015384530342565051011_" x="101.66" y="9.55" width="170.08" height="170.08"/>
							</defs>
							<clipPath id="SVGID_00000161627630202069573730000004454487373226698126_">
								<use xlink:href="#SVGID_00000096024273935667559760000015384530342565051011_"  style="overflow:visible;"/>
							</clipPath>
							<path style="clip-path:url(#SVGID_00000161627630202069573730000004454487373226698126_);" d="M227.02,134.91
								c-2.4,2.4-4.97,4.55-7.69,6.46l16.42,2.16l-2.17-16.46C231.66,129.85,229.47,132.47,227.02,134.91"/>
						</g>
					</g>
					<g>
						<g>
							<defs>
								
									<rect id="SVGID_00000164479895053845018150000008286446620020002727_" x="101.66" y="9.55" width="170.08" height="170.08"/>
							</defs>
							<clipPath id="SVGID_00000034807696821930626000000000984367036786902669_">
								<use xlink:href="#SVGID_00000164479895053845018150000008286446620020002727_"  style="overflow:visible;"/>
							</clipPath>
							<path style="clip-path:url(#SVGID_00000034807696821930626000000000984367036786902669_);" d="M202.62,132.66l-4.36,16.25
								c6.74-1.42,13.12-4.08,18.88-7.87L202.62,132.66z"/>
						</g>
					</g>
					<g>
						<g>
							<defs>
								
									<rect id="SVGID_00000022558011982737255750000012059553700229976207_" x="101.66" y="9.55" width="170.08" height="170.08"/>
							</defs>
							<clipPath id="SVGID_00000052814893155063513850000016176784922768934282_">
								<use xlink:href="#SVGID_00000022558011982737255750000012059553700229976207_"  style="overflow:visible;"/>
							</clipPath>
							<path style="clip-path:url(#SVGID_00000052814893155063513850000016176784922768934282_);" d="M199.12,150.26l14.18,8.18
								l4.26-15.88C211.91,146.21,205.68,148.81,199.12,150.26"/>
						</g>
					</g>
					<g>
						<g>
							<defs>
								
									<rect id="SVGID_00000121992586613824949560000006423616272827057565_" x="101.66" y="9.55" width="170.08" height="170.08"/>
							</defs>
							<clipPath id="SVGID_00000122694323992231915500000011347536724875421336_">
								<use xlink:href="#SVGID_00000121992586613824949560000006423616272827057565_"  style="overflow:visible;"/>
							</clipPath>
							<path style="clip-path:url(#SVGID_00000122694323992231915500000011347536724875421336_);" d="M196.87,149.19l-10.17-13.26
								l-10.17,13.26c3.32,0.61,6.72,0.93,10.17,0.93S193.55,149.8,196.87,149.19"/>
						</g>
					</g>
					<g>
						<g>
							<defs>
								
									<rect id="SVGID_00000121269655655624218240000009458130470871643062_" x="101.66" y="9.55" width="170.08" height="170.08"/>
							</defs>
							<clipPath id="SVGID_00000143591610817829779360000004839589199069989822_">
								<use xlink:href="#SVGID_00000121269655655624218240000009458130470871643062_"  style="overflow:visible;"/>
							</clipPath>
							<path style="clip-path:url(#SVGID_00000143591610817829779360000004839589199069989822_);" d="M186.7,151.62
								c-3.41,0-6.77-0.3-10.06-0.88l10.06,13.11l10.06-13.11C193.47,151.32,190.11,151.62,186.7,151.62"/>
						</g>
					</g>
					<g>
						<g>
							<defs>
								
									<rect id="SVGID_00000061456048316534810560000015229849075371062153_" x="101.66" y="9.55" width="170.08" height="170.08"/>
							</defs>
							<clipPath id="SVGID_00000173122243399535509970000002187259473033272988_">
								<use xlink:href="#SVGID_00000061456048316534810560000015229849075371062153_"  style="overflow:visible;"/>
							</clipPath>
							<path style="clip-path:url(#SVGID_00000173122243399535509970000002187259473033272988_);" d="M170.72,132.66l-14.49,8.37
								c5.74,3.79,12.12,6.45,18.85,7.87L170.72,132.66z"/>
						</g>
					</g>
					<g>
						<g>
							<defs>
								
									<rect id="SVGID_00000078738798402016500320000007933433657453757113_" x="101.66" y="9.55" width="170.08" height="170.08"/>
							</defs>
							<clipPath id="SVGID_00000065033652056023248770000009992879246718973869_">
								<use xlink:href="#SVGID_00000078738798402016500320000007933433657453757113_"  style="overflow:visible;"/>
							</clipPath>
							<path style="clip-path:url(#SVGID_00000065033652056023248770000009992879246718973869_);" d="M155.77,142.52l4.27,15.93
								l14.19-8.19C167.66,148.8,161.43,146.18,155.77,142.52"/>
						</g>
					</g>
					<g>
						<g>
							<defs>
								
									<rect id="SVGID_00000180337564982019302270000013290833543191588481_" x="101.66" y="9.55" width="170.08" height="170.08"/>
							</defs>
							<clipPath id="SVGID_00000141420415333466307350000015400318199401610907_">
								<use xlink:href="#SVGID_00000180337564982019302270000013290833543191588481_"  style="overflow:visible;"/>
							</clipPath>
							<path style="clip-path:url(#SVGID_00000141420415333466307350000015400318199401610907_);" d="M140.87,125.97
								c1.92,2.8,4.11,5.44,6.56,7.89c2.42,2.42,5.02,4.58,7.78,6.49l2.18-16.55L140.87,125.97z"/>
						</g>
					</g>
					<g>
						<g>
							<defs>
								
									<rect id="SVGID_00000105388593515713343820000005769936611752314280_" x="101.66" y="9.55" width="170.08" height="170.08"/>
							</defs>
							<clipPath id="SVGID_00000082340260045497232420000016177965486847242922_">
								<use xlink:href="#SVGID_00000105388593515713343820000005769936611752314280_"  style="overflow:visible;"/>
							</clipPath>
							<path style="clip-path:url(#SVGID_00000082340260045497232420000016177965486847242922_);" d="M146.37,134.91
								c-2.44-2.44-4.63-5.06-6.56-7.84l-2.17,16.45l16.41-2.16C151.34,139.47,148.77,137.31,146.37,134.91"/>
						</g>
					</g>
					<g>
						<g>
							<defs>
								
									<rect id="SVGID_00000083072123354993251750000004672553808018634647_" x="101.66" y="9.55" width="170.08" height="170.08"/>
							</defs>
							<clipPath id="SVGID_00000035524752112185951390000012700866523881602187_">
								<use xlink:href="#SVGID_00000083072123354993251750000004672553808018634647_"  style="overflow:visible;"/>
							</clipPath>
							<path style="clip-path:url(#SVGID_00000035524752112185951390000012700866523881602187_);" d="M130.97,106.76l-8.17,14.15
								l15.71,4.21C134.92,119.48,132.38,113.28,130.97,106.76"/>
						</g>
					</g>
					<g>
						<g>
							<defs>
								
									<rect id="SVGID_00000096780045866093515850000000756787774750367152_" x="101.66" y="9.55" width="170.08" height="170.08"/>
							</defs>
							<clipPath id="SVGID_00000137812452978275505530000004260472414275901366_">
								<use xlink:href="#SVGID_00000096780045866093515850000000756787774750367152_"  style="overflow:visible;"/>
							</clipPath>
							<path style="clip-path:url(#SVGID_00000137812452978275505530000004260472414275901366_);" d="M132.31,105.86
								c1.39,6.78,4.04,13.21,7.82,19.01l8.45-14.64L132.31,105.86z"/>
						</g>
					</g>
					<g>
						<g>
							<defs>
								
									<rect id="SVGID_00000057115606195229528330000010131083956900906383_" x="101.66" y="9.55" width="170.08" height="170.08"/>
							</defs>
							<clipPath id="SVGID_00000160876037817850826530000006071569667170976429_">
								<use xlink:href="#SVGID_00000057115606195229528330000010131083956900906383_"  style="overflow:visible;"/>
							</clipPath>
							<path style="clip-path:url(#SVGID_00000160876037817850826530000006071569667170976429_);" d="M129.67,94.59
								c0-3.38,0.29-6.71,0.86-9.97l-12.99,9.97l12.99,9.97C129.96,101.3,129.67,97.97,129.67,94.59"/>
						</g>
					</g>
					<g>
						<g>
							<defs>
								
									<rect id="SVGID_00000113319527759644365690000015748773531461481916_" x="101.66" y="9.55" width="170.08" height="170.08"/>
							</defs>
							<clipPath id="SVGID_00000146498622376592532180000002203215354040785852_">
								<use xlink:href="#SVGID_00000113319527759644365690000015748773531461481916_"  style="overflow:visible;"/>
							</clipPath>
							<path style="clip-path:url(#SVGID_00000146498622376592532180000002203215354040785852_);" d="M132.11,84.35
								c-0.62,3.34-0.94,6.77-0.94,10.24s0.32,6.9,0.94,10.24l13.35-10.24L132.11,84.35z"/>
						</g>
					</g>
					<g>
						<g>
							<defs>
								
									<rect id="SVGID_00000038400111935865961470000001394614225672352438_" x="101.66" y="9.55" width="170.08" height="170.08"/>
							</defs>
							<clipPath id="SVGID_00000113320252102594586250000017803951632238427780_">
								<use xlink:href="#SVGID_00000038400111935865961470000001394614225672352438_"  style="overflow:visible;"/>
							</clipPath>
							<path style="clip-path:url(#SVGID_00000113320252102594586250000017803951632238427780_);" d="M148.39,79.07l-8.4-14.54
								c-3.72,5.76-6.32,12.13-7.7,18.86L148.39,79.07z"/>
						</g>
					</g>
					<g>
						<g>
							<defs>
								
									<rect id="SVGID_00000018228605930684550720000017849267079974624649_" x="101.66" y="9.55" width="170.08" height="170.08"/>
							</defs>
							<clipPath id="SVGID_00000180346116962059284610000006422498470989369988_">
								<use xlink:href="#SVGID_00000018228605930684550720000017849267079974624649_"  style="overflow:visible;"/>
							</clipPath>
							<path style="clip-path:url(#SVGID_00000180346116962059284610000006422498470989369988_);" d="M138.46,64.14l-15.86,4.25
								l8.3,14.37C132.29,76.14,134.84,69.85,138.46,64.14"/>
						</g>
					</g>
					<g>
						<g>
							<defs>
								
									<rect id="SVGID_00000168795390192922466580000014145726293947314053_" x="101.66" y="9.55" width="170.08" height="170.08"/>
							</defs>
							<clipPath id="SVGID_00000025409130647025391580000009487420726946526597_">
								<use xlink:href="#SVGID_00000168795390192922466580000014145726293947314053_"  style="overflow:visible;"/>
							</clipPath>
							<path style="clip-path:url(#SVGID_00000025409130647025391580000009487420726946526597_);" d="M146.37,54.26
								c2.27-2.27,4.7-4.32,7.26-6.15l-16.2-2.13l2.16,16.44C141.58,59.53,143.84,56.8,146.37,54.26"/>
						</g>
					</g>
					<g>
						<g>
							<defs>
								
									<rect id="SVGID_00000027579724943452384930000002835630284776876422_" x="101.66" y="9.55" width="170.08" height="170.08"/>
							</defs>
							<clipPath id="SVGID_00000040551157557640558550000003435943338250163845_">
								<use xlink:href="#SVGID_00000027579724943452384930000002835630284776876422_"  style="overflow:visible;"/>
							</clipPath>
							<path style="clip-path:url(#SVGID_00000040551157557640558550000003435943338250163845_);" d="M140.64,63.54l16.53,2.17
								l-2.2-16.72c-2.66,1.86-5.19,3.97-7.53,6.32C144.88,57.87,142.62,60.62,140.64,63.54"/>
						</g>
					</g>
					<g>
						<g>
							<defs>
								
									<rect id="SVGID_00000016791255596437741260000005243057424979922104_" x="101.66" y="9.55" width="170.08" height="170.08"/>
							</defs>
							<clipPath id="SVGID_00000005224472939786642070000013059307329811284406_">
								<use xlink:href="#SVGID_00000016791255596437741260000005243057424979922104_"  style="overflow:visible;"/>
							</clipPath>
							<path style="clip-path:url(#SVGID_00000005224472939786642070000013059307329811284406_);" d="M174.27,38.91l-14.23-8.21
								l-4.28,15.97C161.43,42.99,167.68,40.37,174.27,38.91"/>
						</g>
					</g>
					<g>
						<g>
							<defs>
								
									<rect id="SVGID_00000011731657172875323070000015151813773413264532_" x="101.66" y="9.55" width="170.08" height="170.08"/>
							</defs>
							<clipPath id="SVGID_00000087394045426968482670000001248076953995187079_">
								<use xlink:href="#SVGID_00000011731657172875323070000015151813773413264532_"  style="overflow:visible;"/>
							</clipPath>
							<path style="clip-path:url(#SVGID_00000087394045426968482670000001248076953995187079_);" d="M156.25,48.13l14.47,8.35
								l4.34-16.21C168.35,41.7,161.99,44.35,156.25,48.13"/>
						</g>
					</g>
					<g>
						<g>
							<defs>
								
									<rect id="SVGID_00000057868196653552821910000016642844603124105114_" x="101.66" y="9.55" width="170.08" height="170.08"/>
							</defs>
							<clipPath id="SVGID_00000132788636160305942540000001091100771121368716_">
								<use xlink:href="#SVGID_00000057868196653552821910000016642844603124105114_"  style="overflow:visible;"/>
							</clipPath>
							<path style="clip-path:url(#SVGID_00000132788636160305942540000001091100771121368716_);" d="M242.92,38.36
								c-15.02-15.02-34.98-23.29-56.22-23.29s-41.21,8.27-56.22,23.29c-15.02,15.02-23.29,34.98-23.29,56.22
								s8.27,41.21,23.29,56.22c15.02,15.02,34.99,23.29,56.22,23.29c21.24,0,41.21-8.27,56.22-23.29
								c15.02-15.02,23.29-34.98,23.29-56.22C266.21,73.35,257.94,53.38,242.92,38.36 M262.87,91.92c1.23,0,2.26,0.83,2.57,1.96
								h-5.14C260.61,92.74,261.64,91.92,262.87,91.92 M256.36,63.59c1.13-0.47,2.4-0.1,3.12,0.82l-4.75,1.97
								C254.59,65.22,255.23,64.06,256.36,63.59 M243.35,40.16c0.57,1.02,0.43,2.33-0.44,3.2s-2.18,1.01-3.2,0.43L243.35,40.16z
								 M239.14,39.59c0.87-0.87,2.18-1.01,3.2-0.44l-3.64,3.64C238.13,41.77,238.27,40.45,239.14,39.59 M218.69,25.49
								c-0.47,1.13-1.63,1.77-2.79,1.63l1.97-4.75C218.79,23.09,219.16,24.36,218.69,25.49 M213.76,23.45
								c0.47-1.13,1.63-1.77,2.79-1.63l-1.97,4.75C213.66,25.85,213.29,24.58,213.76,23.45 M187.41,16.33
								c1.13,0.31,1.95,1.35,1.95,2.57c0,1.23-0.83,2.26-1.95,2.57V16.33z M185.98,16.33v5.14c-1.13-0.31-1.96-1.35-1.96-2.57
								S184.85,16.64,185.98,16.33 M159.7,23.52c0.47,1.13,0.1,2.4-0.82,3.12l-1.97-4.75C158.07,21.75,159.23,22.39,159.7,23.52
								 M155.59,22.44l1.97,4.75c-1.16,0.14-2.32-0.49-2.79-1.63C154.3,24.43,154.67,23.16,155.59,22.44 M134.43,39.37
								c0.87,0.87,1.01,2.18,0.44,3.2l-3.64-3.64C132.25,38.36,133.56,38.5,134.43,39.37 M130.22,39.95l3.64,3.64
								c-1.02,0.58-2.33,0.43-3.2-0.43C129.78,42.28,129.64,40.97,130.22,39.95 M117.21,63.38c1.13,0.47,1.77,1.63,1.63,2.79
								l-4.75-1.97C114.81,63.28,116.08,62.91,117.21,63.38 M113.54,65.52l4.75,1.97c-0.72,0.92-1.99,1.29-3.12,0.82
								C114.03,67.84,113.4,66.68,113.54,65.52 M110.7,97.26c-1.23,0-2.26-0.83-2.57-1.95h5.14
								C112.96,96.43,111.93,97.26,110.7,97.26 M108.13,93.87c0.31-1.13,1.34-1.96,2.57-1.96s2.26,0.83,2.57,1.96H108.13z
								 M115.16,120.86c1.13-0.47,2.4-0.1,3.12,0.82l-4.75,1.97C113.4,122.49,114.03,121.33,115.16,120.86 M117.21,125.8
								c-1.13,0.47-2.4,0.1-3.12-0.82l4.75-1.97C118.98,124.17,118.34,125.33,117.21,125.8 M130.22,149.23
								c-0.58-1.02-0.43-2.33,0.44-3.2s2.18-1.01,3.2-0.44L130.22,149.23z M134.43,149.8c-0.87,0.87-2.18,1.01-3.2,0.44l3.64-3.64
								C135.44,147.62,135.3,148.94,134.43,149.8 M154.98,163.61c0.47-1.13,1.63-1.77,2.79-1.63l-1.97,4.75
								C154.88,166.01,154.51,164.74,154.98,163.61 M159.92,165.65c-0.47,1.13-1.63,1.77-2.79,1.63l1.97-4.75
								C160.01,163.25,160.38,164.52,159.92,165.65 M185.98,173.27c-1.13-0.31-1.96-1.34-1.96-2.57s0.83-2.26,1.96-2.57V173.27z
								 M187.41,173.27v-5.14c1.13,0.31,1.95,1.34,1.95,2.57S188.54,172.96,187.41,173.27 M213.65,165.65
								c-0.47-1.13-0.1-2.4,0.82-3.12l1.97,4.75C215.28,167.42,214.12,166.79,213.65,165.65 M217.77,166.73l-1.97-4.75
								c1.16-0.14,2.32,0.49,2.79,1.63C219.06,164.74,218.69,166.01,217.77,166.73 M186.7,167.16c-19.38,0-37.61-7.55-51.31-21.25
								c-13.71-13.71-21.26-31.93-21.26-51.31s7.55-37.61,21.26-51.32s31.93-21.26,51.31-21.26s37.61,7.55,51.32,21.26
								s21.26,31.93,21.26,51.32s-7.55,37.61-21.26,51.31S206.08,167.16,186.7,167.16 M239.14,149.59c-0.87-0.87-1.01-2.18-0.44-3.2
								l3.64,3.64C241.32,150.6,240.01,150.46,239.14,149.59 M243.35,149.01l-3.64-3.64c1.02-0.58,2.33-0.43,3.2,0.44
								S243.93,147.99,243.35,149.01 M256.14,126.01c-1.13-0.47-1.77-1.63-1.63-2.79l4.75,1.97
								C258.55,126.11,257.28,126.48,256.14,126.01 M259.82,123.86l-4.75-1.97c0.72-0.92,1.99-1.29,3.12-0.82
								S259.96,122.7,259.82,123.86 M258.4,68.53c-1.13,0.47-2.4,0.1-3.12-0.82l4.75-1.97C260.17,66.9,259.54,68.06,258.4,68.53
								 M262.87,97.26c-1.23,0-2.26-0.83-2.57-1.95h5.14C265.13,96.43,264.1,97.26,262.87,97.26"/>
						</g>
					</g>
					<g>
						<g>
							<defs>
								
									<rect id="SVGID_00000059276263036844512040000006743615129975029919_" x="101.66" y="9.55" width="170.08" height="170.08"/>
							</defs>
							<clipPath id="SVGID_00000152251726416138277950000000936188953955973565_">
								<use xlink:href="#SVGID_00000059276263036844512040000006743615129975029919_"  style="overflow:visible;"/>
							</clipPath>
							<path style="clip-path:url(#SVGID_00000152251726416138277950000000936188953955973565_);" d="M179.57,67.58
								c0.2,0,0.35-0.09,0.47-0.27c0.07-0.07,0.11-0.16,0.15-0.27c0.34,0.07,0.68,0.13,1.01,0.2c0.28,0.07,0.58,0.13,0.91,0.18
								c0.33,0.06,0.63,0.13,0.91,0.21c-0.05,0.2-0.1,0.39-0.15,0.57c-0.03,0.18-0.07,0.37-0.1,0.57s-0.05,0.39-0.05,0.57v19.01
								c-0.47,0.07-0.91,0.11-1.3,0.15c-0.33,0.03-0.64,0.05-0.94,0.06c-0.29,0.01-0.47-0.02-0.52-0.09v-2.16h-8.29v2.29
								c-0.48,0.07-0.91,0.11-1.3,0.15c-0.33,0.03-0.64,0.05-0.94,0.06c-0.29,0.01-0.46-0.01-0.49-0.06V67.08
								c0.34,0.03,0.7,0.08,1.06,0.15c0.31,0.05,0.66,0.1,1.03,0.16c0.38,0.06,0.75,0.13,1.13,0.21h7.41V67.58z M171.67,76.36h8.29
								v-8.53h-8.29V76.36z M171.67,86.05h8.29v-9.44h-8.29V86.05z"/>
						</g>
					</g>
					<g>
						<g>
							<defs>
								
									<rect id="SVGID_00000134944238573920010880000017804592983522814605_" x="101.66" y="9.55" width="170.08" height="170.08"/>
							</defs>
							<clipPath id="SVGID_00000045603478098453567790000001200547400341955237_">
								<use xlink:href="#SVGID_00000134944238573920010880000017804592983522814605_"  style="overflow:visible;"/>
							</clipPath>
							<path style="clip-path:url(#SVGID_00000045603478098453567790000001200547400341955237_);" d="M192.08,69.26
								c0.18,0,0.34-0.09,0.49-0.27c0.07-0.08,0.13-0.18,0.2-0.3c0.25,0.07,0.51,0.13,0.79,0.2c0.23,0.07,0.48,0.13,0.76,0.2
								s0.54,0.14,0.79,0.22c-0.05,0.2-0.1,0.39-0.15,0.57c-0.08,0.36-0.12,0.73-0.12,1.11v12.74c-0.41,0.07-0.77,0.11-1.08,0.15
								c-0.28,0.03-0.54,0.05-0.79,0.06s-0.39-0.01-0.42-0.06v-1.65h-1.28v3.02c-0.39,0.07-0.75,0.12-1.08,0.15
								c-0.28,0.03-0.54,0.05-0.8,0.05s-0.4-0.03-0.43-0.07V68.73c0.3,0.03,0.59,0.08,0.89,0.15c0.26,0.05,0.56,0.11,0.89,0.17
								c0.33,0.07,0.66,0.14,0.98,0.22L192.08,69.26L192.08,69.26L192.08,69.26z M191.27,81.97h1.28V69.5h-1.28V81.97z
								 M195.16,81.97c0.52-1.1,0.98-2.13,1.35-3.1c0.38-0.97,0.7-1.91,0.97-2.83s0.49-1.83,0.68-2.73c0.18-0.9,0.34-1.84,0.49-2.8
								c-0.46,0.77-0.98,1.5-1.56,2.18s-1.23,1.3-1.95,1.86h-0.08c0.51-1.26,0.93-2.43,1.27-3.49c0.34-1.07,0.61-1.99,0.82-2.78
								c0.25-0.92,0.43-1.76,0.57-2.53c0.38,0.07,0.75,0.13,1.13,0.2c0.33,0.08,0.67,0.17,1.03,0.27c0.36,0.1,0.7,0.22,1.03,0.37
								l-0.07,0.17l-0.59,0.05c-0.33,1.12-0.77,2.18-1.33,3.2h4.52c0.13,0,0.24-0.03,0.33-0.09s0.17-0.13,0.23-0.21
								c0.07-0.08,0.12-0.18,0.17-0.29c0.3,0.05,0.59,0.11,0.89,0.17c0.26,0.07,0.54,0.14,0.82,0.22c0.29,0.08,0.56,0.16,0.82,0.24
								c-0.03,0.15-0.07,0.3-0.12,0.44c-0.03,0.13-0.07,0.27-0.11,0.41s-0.07,0.26-0.09,0.36c-0.05,2.03-0.09,3.85-0.14,5.46
								s-0.11,3.03-0.2,4.27s-0.2,2.3-0.34,3.18c-0.14,0.89-0.32,1.63-0.55,2.24c-0.1,0.26-0.23,0.53-0.41,0.8
								c-0.17,0.27-0.38,0.52-0.61,0.75c-0.24,0.23-0.5,0.43-0.79,0.61s-0.59,0.3-0.92,0.37c-1.05,0.23-1.56-0.14-1.52-1.11
								c0.02-0.25-0.04-0.45-0.17-0.61s-0.33-0.31-0.59-0.44c-0.13-0.07-0.32-0.14-0.57-0.22c-0.25-0.08-0.48-0.16-0.71-0.24
								c-0.28-0.08-0.57-0.16-0.86-0.25l-0.03-0.15c0.53,0.03,1.01,0.06,1.45,0.07c0.38,0.02,0.75,0.03,1.11,0.05
								c0.36,0.02,0.61,0.02,0.76,0c0.15,0,0.29-0.01,0.44-0.04c0.15-0.02,0.29-0.08,0.42-0.17s0.26-0.22,0.39-0.39
								c0.13-0.17,0.25-0.41,0.37-0.73c0.13-0.33,0.25-0.79,0.34-1.38c0.1-0.59,0.18-1.27,0.26-2.04c0.07-0.77,0.14-1.61,0.18-2.51
								c0.05-0.9,0.09-1.83,0.12-2.79c0.03-0.96,0.06-1.93,0.07-2.9c0.02-0.98,0.03-1.92,0.05-2.84h-0.25
								c-0.12,2.07-0.33,3.91-0.64,5.55c-0.31,1.63-0.78,3.12-1.41,4.46c-0.63,1.35-1.45,2.57-2.46,3.69s-2.27,2.19-3.78,3.22
								l-0.07-0.05c1.08-1.41,1.98-2.78,2.69-4.12c0.71-1.34,1.29-2.68,1.73-4.03c0.44-1.35,0.78-2.74,1.01-4.17
								s0.41-2.94,0.54-4.55h-0.27c-0.16,1.43-0.39,2.71-0.69,3.84c-0.29,1.13-0.68,2.16-1.14,3.1c-0.47,0.93-1.03,1.79-1.68,2.58
								c-0.66,0.79-1.43,1.53-2.31,2.24L195.16,81.97z"/>
						</g>
					</g>
					<g>
						<g>
							<defs>
								
									<rect id="SVGID_00000034788654449307194040000013993781937157324197_" x="101.66" y="9.55" width="170.08" height="170.08"/>
							</defs>
							<clipPath id="SVGID_00000039125912054811197740000008408495138308635283_">
								<use xlink:href="#SVGID_00000034788654449307194040000013993781937157324197_"  style="overflow:visible;"/>
							</clipPath>
							<path style="clip-path:url(#SVGID_00000039125912054811197740000008408495138308635283_);" d="M175.73,96.16v1.89
								c0,0.64-0.01,1.28-0.03,1.92h0.32c0.11,0,0.21-0.02,0.29-0.07c0.08-0.05,0.16-0.11,0.22-0.17c0.07-0.06,0.12-0.15,0.17-0.27
								c0.3,0.07,0.59,0.13,0.89,0.2c0.25,0.07,0.51,0.13,0.8,0.21c0.29,0.07,0.55,0.14,0.78,0.21c-0.08,0.18-0.14,0.36-0.17,0.55
								s-0.07,0.37-0.1,0.55c-0.03,0.2-0.05,0.4-0.05,0.61c0,0.52,0,1.21-0.01,2.07c-0.01,0.85-0.02,1.77-0.04,2.77
								c-0.02,0.99-0.04,2-0.07,3.03c-0.03,1.02-0.07,1.98-0.11,2.88c-0.04,0.89-0.1,1.67-0.17,2.32c-0.08,0.66-0.16,1.11-0.26,1.35
								c-0.44,1.12-1.11,1.8-1.99,2.04c-0.44,0.11-0.78,0.07-1-0.14c-0.22-0.2-0.33-0.52-0.33-0.95c0.02-0.21-0.05-0.38-0.2-0.52
								c-0.15-0.13-0.33-0.25-0.54-0.35c-0.26-0.13-0.54-0.25-0.84-0.36c-0.29-0.11-0.48-0.18-0.54-0.21
								c-0.34,0.47-0.73,0.95-1.16,1.44c-0.43,0.48-0.91,0.96-1.45,1.44l-0.07-0.02c0.49-0.85,0.93-1.74,1.32-2.67
								c0.38-0.93,0.71-1.86,0.98-2.79s0.49-1.86,0.66-2.77c0.17-0.91,0.29-1.77,0.36-2.6c0.02-0.29,0.04-0.72,0.06-1.27
								c0.03-0.55,0.04-1.16,0.05-1.84s0.02-1.41,0.04-2.18c0.02-0.77,0.02-1.52,0.02-2.26h-1.38v12.1
								c-0.38,0.05-0.71,0.09-1.01,0.12c-0.26,0.03-0.5,0.05-0.73,0.05c-0.22,0-0.35-0.02-0.38-0.05v-0.86h-0.74v2.46
								c-0.38,0.05-0.71,0.09-1.01,0.12c-0.26,0.03-0.51,0.05-0.74,0.05s-0.36-0.02-0.39-0.07v-16.8c0.26,0.02,0.54,0.05,0.84,0.1
								c0.25,0.03,0.52,0.07,0.81,0.12c0.3,0.05,0.58,0.11,0.86,0.17c0.08,0,0.16-0.03,0.22-0.07c0.06-0.05,0.12-0.11,0.17-0.17
								c0.06-0.07,0.11-0.14,0.15-0.22c0.26,0.05,0.53,0.1,0.79,0.15c0.23,0.05,0.46,0.1,0.7,0.15s0.46,0.11,0.68,0.17
								c-0.05,0.11-0.09,0.24-0.12,0.37c-0.03,0.11-0.06,0.24-0.07,0.38c-0.02,0.14-0.03,0.28-0.03,0.43v1.06h1.38
								c0.02-0.98,0.02-1.89,0.02-2.7c0-0.82-0.01-1.42-0.02-1.8c0.3,0.02,0.6,0.04,0.91,0.07c0.54,0.05,1.16,0.14,1.87,0.27v0.17
								L175.73,96.16z M169.34,111.33h0.74V97.97h-0.74V111.33z M175.71,100.22c0,1.03-0.01,2.05-0.04,3.04
								c-0.02,0.99-0.06,1.93-0.11,2.8c-0.05,0.88-0.11,1.67-0.18,2.39c-0.07,0.71-0.16,1.31-0.26,1.78
								c-0.18,0.8-0.44,1.66-0.79,2.57c-0.34,0.91-0.84,1.84-1.48,2.79c0.1,0,0.25,0,0.46,0.01c0.2,0.01,0.41,0.02,0.63,0.02
								c0.21,0.01,0.41,0.02,0.6,0.03s0.32,0.01,0.41,0.01c0.18,0,0.39-0.04,0.63-0.12s0.42-0.29,0.55-0.61
								c0.07-0.16,0.12-0.55,0.17-1.17c0.05-0.61,0.09-1.36,0.12-2.25c0.03-0.88,0.06-1.85,0.09-2.9c0.02-1.05,0.04-2.09,0.05-3.12
								c0.01-1.03,0.02-2.01,0.02-2.94c0.01-0.93,0.01-1.7,0.01-2.32h-0.88L175.71,100.22L175.71,100.22z M182.15,98.08
								c0.1,0,0.18-0.02,0.26-0.07c0.07-0.05,0.14-0.11,0.21-0.17c0.07-0.07,0.12-0.15,0.17-0.25c0.26,0.07,0.52,0.13,0.79,0.2
								c0.23,0.07,0.47,0.13,0.73,0.18c0.25,0.06,0.49,0.13,0.72,0.21c-0.05,0.15-0.1,0.31-0.15,0.49
								c-0.08,0.33-0.12,0.66-0.12,1.01v17.66c-0.38,0.05-0.71,0.09-1.01,0.12c-0.26,0.03-0.51,0.05-0.75,0.06s-0.37-0.01-0.41-0.06
								v-1.45h-0.89v1.87c-0.38,0.07-0.71,0.12-1.01,0.15c-0.26,0.03-0.51,0.05-0.74,0.05s-0.36-0.03-0.39-0.07v-20.4
								c0.25,0.03,0.52,0.07,0.81,0.12c0.25,0.03,0.52,0.08,0.81,0.15c0.3,0.07,0.6,0.13,0.91,0.2H182.15z M181.71,115.76h0.89
								V98.32h-0.89V115.76z"/>
						</g>
					</g>
					<g>
						<g>
							<defs>
								
									<rect id="SVGID_00000174601976411676587520000000581125843332097963_" x="101.66" y="9.55" width="170.08" height="170.08"/>
							</defs>
							<clipPath id="SVGID_00000045580411171918589060000005724426601170427286_">
								<use xlink:href="#SVGID_00000174601976411676587520000000581125843332097963_"  style="overflow:visible;"/>
							</clipPath>
							<path style="clip-path:url(#SVGID_00000045580411171918589060000005724426601170427286_);" d="M191.99,97.96
								c0.18,0,0.34-0.09,0.49-0.27c0.07-0.08,0.12-0.18,0.17-0.29l0.86,0.17c0.25,0.05,0.52,0.11,0.81,0.17
								c0.3,0.07,0.57,0.14,0.81,0.22c-0.05,0.2-0.1,0.39-0.15,0.57c-0.08,0.36-0.12,0.73-0.12,1.11v11.71
								c-0.43,0.07-0.81,0.11-1.16,0.15c-0.29,0.03-0.57,0.05-0.84,0.06c-0.26,0.01-0.41-0.01-0.44-0.06v-1.4h-1.2v3.02
								c-0.43,0.07-0.81,0.11-1.16,0.15c-0.3,0.03-0.58,0.05-0.85,0.05s-0.42-0.02-0.46-0.07V97.41c0.33,0.03,0.66,0.08,0.98,0.15
								c0.28,0.05,0.59,0.11,0.95,0.17c0.35,0.07,0.69,0.14,1.02,0.22h0.29L191.99,97.96L191.99,97.96z M191.22,109.84h1.2V98.21
								h-1.2V109.84z M199.61,96.5v21.89c-0.43,0.06-0.81,0.11-1.16,0.15c-0.3,0.03-0.57,0.05-0.84,0.05
								c-0.26,0-0.42-0.02-0.47-0.07v-6.27h-2.61l-0.07-0.25h2.68v-5.61h-1.89l-0.07-0.25h1.97v-5.04h-2.09l-0.07-0.25h2.16v-5.02
								c0.34,0.02,0.69,0.04,1.03,0.07c0.3,0.03,0.62,0.07,0.98,0.11s0.7,0.09,1.03,0.16v0.17L199.61,96.5z M207.26,112.22h-3.61
								v6.2c-0.43,0.07-0.81,0.12-1.16,0.15c-0.3,0.03-0.57,0.05-0.84,0.05c-0.26,0-0.42-0.03-0.47-0.07V95.73
								c0.34,0.02,0.69,0.04,1.03,0.07c0.3,0.03,0.62,0.07,0.98,0.11s0.7,0.09,1.03,0.16v0.17l-0.59,0.15v4.45h1.16
								c0.13,0,0.27-0.09,0.42-0.27c0.07-0.07,0.14-0.16,0.22-0.27c0.21,0.08,0.41,0.16,0.59,0.25c0.34,0.16,0.64,0.31,0.89,0.44
								v0.1h-3.27v5.04h0.98c0.06,0,0.13-0.02,0.2-0.07c0.06-0.05,0.14-0.11,0.22-0.17c0.07-0.07,0.15-0.15,0.25-0.27
								c0.2,0.1,0.39,0.18,0.57,0.25c0.16,0.08,0.32,0.16,0.48,0.22c0.16,0.07,0.29,0.13,0.41,0.2v0.1h-3.1V112h1.5
								c0.13,0,0.27-0.09,0.42-0.27c0.06-0.07,0.14-0.16,0.22-0.27c0.21,0.08,0.41,0.16,0.59,0.24c0.34,0.17,0.64,0.31,0.89,0.44
								L207.26,112.22L207.26,112.22L207.26,112.22z"/>
						</g>
					</g>
				</g>
			</g>
		</g>
	</g>
</g>
</svg>
